<svg xmlns="http://www.w3.org/2000/svg" fill="none" viewBox="0 0 24 24" id="Checked-Bag--Streamline-Rounded-Material" height="24" width="24">
  <desc>
    Checked Bag Streamline Icon: https://streamlinehq.com
  </desc>
  <path fill="#2d7a4a" d="M2.75 21c-0.2125 0 -0.390585 -0.07235 -0.53425 -0.217C2.071915 20.6385 2 20.45935 2 20.2455c0 -0.21365 0.071915 -0.39135 0.21575 -0.533C2.359415 19.57085 2.5375 19.5 2.75 19.5h18.5c0.2125 0 0.39065 0.07235 0.5345 0.217 0.14365 0.1445 0.2155 0.32365 0.2155 0.5375 0 0.21365 -0.07185 0.39135 -0.2155 0.533 -0.14385 0.14165 -0.322 0.2125 -0.5345 0.2125h-18.5Zm2.7 -3c-0.4 0 -0.75 -0.15 -1.05 -0.45 -0.3 -0.3 -0.45 -0.65 -0.45 -1.05V7.5c0 -0.4 0.15 -0.75 0.45 -1.05 0.3 -0.3 0.65 -0.45 1.05 -0.45h3.475c0 -0.9 0.3 -1.625 0.9 -2.175 0.6 -0.55 1.31665 -0.825 2.15 -0.825 0.83335 0 1.55 0.275 2.15 0.825 0.6 0.55 0.9 1.275 0.9 2.175H18.5c0.4 0 0.75 0.15 1.05 0.45 0.3 0.3 0.45 0.65 0.45 1.05v9c0 0.4 -0.15 0.75 -0.45 1.05 -0.3 0.3 -0.65 0.45 -1.05 0.45H5.45Zm11.65 -1.5H18.5V7.5h-1.4v9ZM10.025 6h3.9c0 -0.56665 -0.19585 -1.020835 -0.5875 -1.3625 -0.39165 -0.341665 -0.84585 -0.5125 -1.3625 -0.5125s-0.97085 0.170835 -1.3625 0.5125c-0.39165 0.341665 -0.5875 0.79585 -0.5875 1.3625ZM6.85 16.5V7.5h-1.4v9h1.4Zm1.125 -9v9h8V7.5h-8Z" stroke-width="0.5"></path>
</svg>